<?xml version="1.0" encoding="utf-8"?>
<!-- Generator: Adobe Illustrator 21.0.0, SVG Export Plug-In . SVG Version: 6.00 Build 0)  -->
<svg version="1.1" id="Слой_1" xmlns="http://www.w3.org/2000/svg" xmlns:xlink="http://www.w3.org/1999/xlink" x="0px" y="0px"
	 viewBox="0 0 1000 1000" style="enable-background:new 0 0 1000 1000;" xml:space="preserve">
<style type="text/css">
	.st0{fill:#72B51B;}
	.st1{fill:#F8D700;}
	.st2{fill:#EF001B;}
</style>
<g>
	<g>
		<path class="st0" d="M375,654.9c-2.8,1.1-7.1-1.4-10.8-1.9c-8.7-1.1-17.6-4.9-24.4,4.9c-2.7,3.9-9.3,1.6-14.2,0.9
			c-10.6-1.4-20.5-1.3-28.2,7.5c-4.6,5.2-12.4,3.2-18.6,5.1c-7.9,2.4-17.6,0.9-21.4,10.8c-0.7,1.9-5.7,2.5-8.9,3.3
			c-10.6,2.6-22.4,2.7-27.8,14.5c-1.1,2.3-6.6,2.5-9.8,4.2c-7.2,3.7-17.4,4.7-16.8,15.9c0.2,3-3.1,4.5-5.5,5.8
			c-12.3,6.7-18.8,18.3-27.2,28.2c-1.8,2.2-3.7,4.6-1.6,7.3c2.3,2.9,5.1,0.9,7.8,0c5-1.7,10.1-3.3,15.3-4.6c2.2-0.5,6.4-1.4,6.7,0.9
			c1.5,12.9,12.1,8,18,6.9c15.5-2.8,29.4,3.4,44.2,4.6c10.8,0.9,21.2,1.7,31.9,0.3c6.3-0.8,7.1-7.7,10.8-9.5c8-4,2,9,9.1,8.2
			c0.4,0,0.9,0,1.2-0.1c20.7-9.7,46.8-6.6,64.5-23.6c2.6-2.5,4.5-5.7,9.1-3c1.2,0.7,3.6,0.8,4.7,0.1c5.3-3.1,11.2-5.1,17-7.1v-81
			C392.1,651.7,383.9,651.5,375,654.9z M361,465.3c-2.8-0.9-4.9-4.1-6.8-6.6c-11.5-14.8-31.5-20.2-43.7-34.3
			c-0.9-1.1-3.2-2.2-4.4-1.9c-15.2,4.6-19.7-7.7-27.5-14.8c-5.1-4.7-9.9-11.2-19-5.3c-3.2,2.1-6.2-0.9-9.1-2.3
			c-10.6-5.4-20.1-14.2-34.2-8.9c-2,0.8-5.3-1.7-8.1-2.5c-6.3-1.7-12.6-4-19.1-4.8c-6.4-0.8-15.6-2.6-18.3,3.3
			c-2.9,6.4,7.1,7.7,11.3,11.4c4.3,3.9,10.8,6.6,6.9,14.1c-1.2,2.3-0.1,4.9,1.5,6.5c16.1,15.9,18.3,38.4,30.2,55.8
			c10.9,16,21.9,32.3,32.5,48.3c9.5,14.4,21.4,27.3,29.8,42.3c6.8,12.1,15.9,22.8,31.1,26.4c5.5,1.3,7.3,5.9,11.1,8.7
			c13,9.7,29.2,15.4,40.2,27.6c1.2,1.4,3.5,2,5.5,2.6c9.9,2.8,19.4,6.4,28.9,10.2V498.8C388.2,486.4,379.4,471.1,361,465.3z"/>
	</g>
</g>
<g>
	<g>
		<path class="st1" d="M622.1,481.8c-8,13.2-19,24.4-26.7,38.1c-8.9,15.7-15,32.9-26.6,47.3c-0.2,0.3-0.7,0.5-0.8,0.9
			c-6.3,25-31.7,41.7-34.3,68.7c-0.8,8.1-7.4,15.3-16.4,20.1c2.5-5,5-9.9,7.4-15c3.6-7.5,9.1-14,5.3-23.7
			c-2.4-6.1,3.9-12.1,8.4-17.3c7.1-8.3,16.4-15.5,12.8-28.4c-0.7-2.5,3.1-6.1,4.5-9.2c6.9-15,19-28.5,15.1-46.5
			c-0.2-1,0.3-2.5,1-3.3c22.3-24.6,17-56.9,27.3-84.8c2.3-6.2,5.4-13.1-2.7-20c-4.8-4.1,1.1-12.3,2.4-18.5c1.1-5.1,4.4-9.9-2.3-14.4
			c-4-2.7-0.3-7.1,0.6-10.7c2.6-10.1,8.7-19.5-0.8-30.4c-3.4-3.9,0.8-13.3,1.2-20.2c0.6-11.6,5.1-24.2-9.9-31.9
			c-1.5-0.8-0.5-5.8-0.5-8.8c0-10.4,3.7-21.5-8.2-29.5c-2.3-1.6-1.1-7.3-2.1-11c-2.4-8.7,2.1-19.9-10.6-25c-1.3-0.5-1.4-4.2-1.7-6.4
			c-1.9-12.5,0.9-26.4-13.8-34.8c-2-1.1-1.1-6.5-1.7-9.9c-1.3-7-0.4-15.2-10.7-17.6c-2.2-0.5-2.8-2.5-3.4-4.4
			c-7.3-23.5-27-40.1-39.6-60.7c-2.4-3.9-6.8-10.1-12.5-7.1c-4.6,2.4,1,7.5,1.4,11.6c1,11.3,4.5,22.7-6.6,32.2
			c-3,2.5-3.5,7.7-4.8,11.7c-1.5,4.6,0.1,10.8-9,10.5c-3-0.1-4.4,5.2-4.9,8.7c-2.8,18.3-13.1,33.4-24,48.2c-2,2.7-3.4,5.2-3.6,8.4
			c-1.1,14.9-11.4,27.5-12,42.9c-0.2,6.2-3,12.6-1.4,19.2c1.3,5.5,0.5,10.1-2.2,15.5c-3.7,7.2-4.9,15.5-4.7,23.7
			c0.1,5.7,3.8,12.3-4.9,15.8c-0.9,0.4-1.6,3.1-1.1,4.2c7.9,18.3-5.2,38.1,5.1,56.2c2.6,4.6-1.4,9.4-0.6,13.4
			c4.1,21.5,0.2,44.2,10.8,64.7c1.6,3.2,3.6,6.1,2.1,9.8c-0.6,1.4-1.2,3.5-0.5,4.5c11.1,16.3,7.6,37.2,19.7,53.1
			c3.9,5.1,7.6,10.1,5.2,17c-0.7,2-0.6,5.4,0.7,6.7c14.6,14.8,13.1,36.8,26.9,52c4.2,4.6,8.7,9.5,4.8,16.6c-2.2,4.2,1.7,7.1,4,10.3
			c7.6,10.6,15,21.3,14.2,37.2c-8.5-9-11.7-18.3-15.7-27.1c-2.9-6.3-5-12.3-12.1-16.7c-7-4.4-5.6-14.1-9-21.1
			c-2.7-5.7-2.5-13-12-14.4c-4.4-0.6-4.8-5.9-5.4-9.7c-1.3-8.1-4.1-15.7-7.2-23.3c-1.9-4.6-3.2-9.4-10.4-9.8
			c-4.8-0.3-5.3-5.4-7.2-8.7c-4.6-7.8-3.3-18.5-10.6-24.3c-2.7-2.2-5.2-4.5-7.6-7v235.7c9.6-3.4,19.1-6.9,25.6-16
			c11.3-15.8,28-24.7,50.9-24.9c-5,7.3-13,6.5-18.5,9.7c-6.6,3.9-18,3.9-14,16.5c1,3.2-5.3,5.4-8.2,8c-7.4,6.7-15.6,11.2-14.8,24.2
			c0.6,9.7-8.3,19.8-12.1,30c-2.8,7.6-4.4,15.7-6.3,23.6c-0.6,2.3-0.7,4.9,2.1,6c3,1.2,4.3-1.3,6-2.9c3.7-3.6,7.4-7.3,11.4-10.6
			c4.6-3.7,9.3-7.2,14,0.3c2.9,4.6,6.3,2.6,8.8-0.6c3.2-4,5.8-8.4,9-12.5c3-3.7,4.7-7.3,11.7-8.3c9.8-1.4,10.4-12.4,14.8-19.5
			c9.9-16.1,12.5-34.1,16.8-54.4c5.5,7.6,4.5,13.6,5.1,18.9c5.8,55.2-0.8,108.7-25.8,159.6c-3.7,7.5-9.1,13.8-14.5,20.2
			c-10.2,12-11,17.4-4.6,34.4c57.8-65.8,69-141.7,58.8-222.4c-1-8.2,3-19.2-10.1-23.4c-2-0.6-1-2.7,0.3-3.8c2.2-1.9,3.3-0.4,4.8,1.2
			c7.6,8.1,9.5,18.7,11.4,28.3c3.4,17,14.3,30,23.9,43.2c13.2,17.9,34,29.5,48.9,46.7c5.5,6.4,16.9,10.9,25.4,16.7
			c5,3.4,7.6,0.1,5.9-4.1c-6.2-15.2-1.4-33.3-14.7-46.5c-2.3-2.3-3.6-5.1-2.7-8.5c0.5-1.8,0.9-4.8-0.1-5.6
			c-14.7-11.7-14.8-34.6-36.4-40.8c-4.8-1.4-8.3-2.7-8.5-9.2c-0.2-5.3-7.5-6.3-12.7-7.7c-7.1-1.8-14.1-3.7-18.6-11
			c8.3-0.4,13.7,3.4,19.4,6.2c6.4,3.2,11.7,8.6,20.4,5.4c3.1-1.1,5.6,2.7,8.3,4.4c10.4,6.5,18.5,16,33.3,16c6.2,0,9.7,6.4,14.6,10.7
			V475.4C625.6,476.8,623.6,479.2,622.1,481.8z"/>
	</g>
</g>
<path class="st2" d="M628.9,572c0-0.1-0.1-0.1-0.1-0.2v13.5C631.9,581.6,631,576.9,628.9,572z"/>
<g>
	<g>
		<path class="st2" d="M806.1,725.4c-9.9-3.3-0.5-13.3-9.2-16.8c-4.3-1.8-15.3-0.8-11-11.7c1.2-2.9-4.9-5.3-8.1-6
			c-18.7-3.8-30.3-21.8-50.8-21.6c-8.8-18.2-31.2-7.6-44.1-18c-4.7-3.8-12.6-3-19.3-3.2c-8.2-0.3-17.5,7.6-24.6-2.4
			c-0.2-0.3-1.8-0.3-2.4,0.1c-2.5,1.7-5.1,2.8-7.8,3.4v82.6c1.1,1,2.3,1.9,3.7,2.6c6.7,3.4,12.3,9.6,21.4,6.2
			c1.2-0.4,3.6,0.2,4.6,1.2c13,12,31.1,12.3,46.8,15.3c19.1,3.7,38.8,4.6,59.7,0.4c19.7-3.9,43.1-15.4,63.5,1.7
			c1.8,1.5,4.2,3.3,6.5,0.9c2-2.2,0-4.3-1.2-6.3C826.9,742.4,820.2,730.1,806.1,725.4z M839.6,367.9c-3-1.9-5.3,0.3-7.6,2
			c-4.6,3.3-9.1,6.6-13.9,9.7c-2,1.3-4.6,2.9-6.7,2.8c-18.9-1.4-34.6,5.1-50.2,14.7c-5.7,3.5-15.9,1.5-22.5,6.6
			c-17.2,13-36.3,23.5-55.7,33.1c-11.7,5.8-20.9,12.7-29.1,22.1c-6.2,7.1-14.1,13.2-23.8,16.2c-0.5,0.1-0.9,0.3-1.3,0.5v96.4
			c0,0.1,0.1,0.1,0.1,0.2c2.1,4.9,3,9.6-0.1,13.3V629c0.9-0.2,1.7-0.4,2.6-0.5c8.6-2,18.3-2.5,21-13.2c1.2-4.8,7-5,11.1-6.5
			c14.3-5.1,27.8-10.2,36.3-23.9c3.4-5.5,13.1-7.5,19.9-11.2c6.2-3.4,14.3-5.1,13.8-14.4c-0.1-2.5,3-3.4,5.1-4.6
			c8.1-4.8,18.6-6.3,18.9-19.5c0.1-5,10.8-9.8,16.8-14.5c6-4.6,11.7-8.2,11-17.6c-0.4-5.2,6.2-11.4,10.7-16.3
			c7.9-8.7,4.2-22.1,14.3-29.7c-8.3-14.4,7.7-18.8,13.2-27.5c1.9-3,4.6-6,3.4-9.6c-3.5-10.7,4.7-19,6.5-28.6c1-5.5,4.9-10.6,7.1-16
			C841.5,372.9,842.5,369.8,839.6,367.9z"/>
	</g>
</g>
</svg>
