<?xml version="1.0" encoding="utf-8"?>
<!-- Generator: Adobe Illustrator 21.0.0, SVG Export Plug-In . SVG Version: 6.00 Build 0)  -->
<svg version="1.1" id="Слой_1" xmlns="http://www.w3.org/2000/svg" xmlns:xlink="http://www.w3.org/1999/xlink" x="0px" y="0px"
	 viewBox="0 0 1000 1000" style="enable-background:new 0 0 1000 1000;" xml:space="preserve">
<style type="text/css">
	.st0{fill:#FFFFFF;}
	.st1{fill:#71F07F;}
</style>
<g>
	<g>
		<path class="st0" d="M826.3,687.7c-9.2-1.5-18.4-3-27.6-4.6c-0.2,1.3-0.4,2.6-0.6,3.9c9.3,1.2,18.5,2.4,27.8,3.5
			C826,689.6,826.1,688.6,826.3,687.7z M786.8,488.4c8.3,1.4,16.7,1.7,25.8,2.5c-0.6-6.6-1-11.2-1.5-15.8c0.2,0,0.4-0.1,0.6-0.1
			c1.3,4.9,2.6,9.9,4,14.8c1-0.2,2-0.4,3-0.6c-0.2-2.5-0.6-5-0.7-7.5c-0.5-11.2-6.5-19.7-13.5-27.7c-7.1-8-14.5-15.8-22-23.9
			c0,18.1-0.2,34.8,0.2,51.4C782.7,484,785,488.1,786.8,488.4z M549.9,500.6c2,0.5,4.1,0.9,6.2,1c26.7,1,53.4,1.9,80.1,2.7
			c6.3,0.2,12.6-0.3,18.8-1c6.9-0.8,11.4-4.3,11.9-12.1c1-15.7,2.7-31.3,3.8-47c0.6-9.6,3-19.8-4.9-28c1.7,1.3,3.4,2.6,5,4
			c0.2-3.7-0.7-6.7-2.5-9.1c-3.1-4.3-6.7-8.3-10.1-12.4c4.2,3,8.4,6.1,12.6,9.1c0.8-11.2-21-31.3-35.1-35.7
			c-1.1-0.3-2.1-0.6-3.1-0.7c-1-0.1-1.9-0.2-2.7-0.1c-0.8,0.1-1.6,0.3-2.3,0.6c3,2.4,5.9,4.8,8.9,7.2c-3.9-1.4-7.7-2.7-11.1-4.5
			c-3-1.6-7-1.4-10.5-2.1c-0.1,0.7-0.1,1.3-0.2,2c1.4,1,2.8,2.1,4.2,3.1c-2.4-0.4-4.8-0.7-6.7-1c-5.9-0.9-13.1-2.1-17.8,0.4
			c-18.4,9.8-38,14.4-59,15.9c-0.6,4.6-1.5,8.9-1.8,13.3c-1.5,22.2-2.9,44.4-4.2,66.6C528.3,492.6,530.8,496,549.9,500.6z
			 M689,491.1c21.9,0.6,43.9,1.7,65.8,1.5c5.8,0,11.8-3.6,17.4-6.2c1.6-0.7,2.9-3.7,2.9-5.6c-0.1-16.6-4.5-32-12.8-46.4
			c-3.2-5.6-5.8-11.6-8.7-17.4c6.5,10.4,13,20.7,19.3,30.9c1.3-12.4-10.8-33.6-22.9-39.1c-0.1,1.3-0.3,2.5-0.4,3.7
			c-18.9-15.1-41.1-21.9-64.9-27.9c-1.1,7.1-2.3,13-2.7,18.8c-0.9,11.7-1.6,23.5-2.1,35.2c-0.6,13.8-0.9,27.6-1.2,41.3
			C678.6,486.9,681.9,490.9,689,491.1z M690.4,544.4c-7.6,1-15,4.1-22.1,7.2c-8.2,3.6-5.5,11.7-5.3,18c0.1,2.2,4.3,4.8,7.1,6.4
			c7,4.1,14.5,7.4,21.3,11.7c13.7,8.6,27.1,17.6,39.9,26c2.5-1.3,4.7-2,6.1-3.4c2.8-2.8,7.1-5.9,7.2-9c0.7-18.2,0.3-36.4,0.3-55.6
			c-6.5-1.2-11.8-3-17-3C715.5,542.7,702.9,542.8,690.4,544.4z M644.2,371.8c7.5,6.6,15.4,13.6,23.3,20.4
			C663.5,380.9,652.2,371.3,644.2,371.8z M809.2,678c-6.4-0.4-11.2-0.6-17-0.9c3-1.3,5.2-2.3,7.5-3.3c-13.4-8.5-14.9-8.5-24.7,0.4
			C785.1,681.5,795.6,684.7,809.2,678z M638.8,536.2c-10.4-0.7-20.9-0.4-31.3-1.1c-5-0.3-10.1-1.7-14.9-3.4
			c-13.5-4.6-26.9-9.5-40.3-14.3c-0.3,1.1-0.6,2.1-0.9,3.2c26.2,5.5,48.6,18.6,70.8,32.7c10.3,6.6,22.2,10.9,32.7,15.9
			c9.8-19.7-3.9-25.4-17.7-31.5c4.1,1,8.3,2,12.4,2.9C646.2,538.2,642.6,536.4,638.8,536.2z M781.1,603.7
			c-7.3,4.2-14.5,8.4-21.6,12.4c18.4-2,48.8-21.1,53.8-34.2c-1.1,0.9-1.8,1.7-2.6,2.2c-9.9,6.6-19.8,13.2-29.8,19.7l0,0c0,0,0,0,0,0
			l0,0c0,0,0,0,0,0c0,0,0,0,0,0C780.9,603.9,781.1,603.7,781.1,603.7z M789.5,528.7c-12.5,3.8-24.4,9.1-35.2,13.2
			c1.3,18.7,2.3,36.4,3.8,54.1c0.3,3.2,2.3,6.3,3.5,9.4c-0.9,1.2-2.4,3.2-3.9,5.2c0.5,0.7,1,1.3,1.5,2c7.3-2.9,14.6-5.8,21.9-8.8
			c0,0,0,0,0,0c0,0,0,0,0,0c0,0,0,0,0,0c0,0,0,0,0,0c0,0,0,0,0,0c0,0-0.2,0.2-0.2,0.2c5.6-4.5,11.2-8.9,16.8-13.4
			c5.6-4.5,11.2-8.9,16.7-13.5c4-3.3,7.7-7.1,11.2-11.1c1-1.1,0.6-3.3,0.8-5.1H824c0.2-4.2,1.4-8.7,0.4-12.6
			C819.8,530,807.9,523.1,789.5,528.7z M783,664.3c-5.3-3-6.1-2.7-18.1,6.2C773.8,673.2,777.2,666.5,783,664.3z M764.7,675.4
			c-5.5-4.7-8.1,1.3-11.6,3.6c-3.7,2.5-7,5.6-10.5,8.4c-0.6-0.6-1.1-1.3-1.7-1.9c4.9-4.5,9.8-8.9,15.1-13.7
			c-17.8-7.8-35.1-15.4-52.3-23c0.2-0.6,0.5-1.2,0.7-1.8c17,6.3,34.1,12.7,51.2,18.9c2.4,0.9,5.8,1.6,7.7,0.6
			c4.3-2.2,8-5.6,12.9-9.2c-17.2-13.7-33-27.7-50.3-39.8c-17.1-12-35.6-21.9-53.5-32.8c-0.3,0.5-0.6,1-1,1.6
			c4.4,4.2,8.7,8.3,13.1,12.5c-0.4,0.4-0.8,0.9-1.2,1.3c-7.8-6.8-15.7-13.7-23.5-20.5c-0.6,0.7-1.3,1.4-1.9,2.1
			c9.8,10.3,19.7,20.5,29.5,30.8c-8-3.4-15.4-7.7-22.2-12.8c-15.4-11.7-24.6-30.6-44.1-37.4c-10.8-3.7-15.5-18.2-29.7-16.5
			c-3.2,0.4-6.8-3.9-10.4-5.6c-10-4.6-20-9.5-33.2-4.3c5.2,1.2,8.8,2,13.6,3c-4.1,2.7-7,4.7-10.2,6.9c1.8,1.6,3.1,2.7,4.4,3.8
			c-0.2,0.3-0.3,0.7-0.5,1c-4.6-1.5-9.2-3-13.8-4.5c-0.3,0.6-0.5,1.1-0.8,1.7c8,5.4,15.9,10.7,23.9,16.1c-0.2,0.4-0.4,0.8-0.6,1.1
			c-8.1-4.2-16.3-8.4-24.5-12.6c-0.9,2.7-1.5,4.6-2.4,7.4c-4.6-13.5-6-14.3-15.5-9.2h9c5.8,14.6,14.2,26.9,24.7,38
			c5.1,5.4,13.9,7.9,14.2,17.5c0,1.1,4.1,2,6.3,3.1l0.7-1.9c-1.3-0.9-2.7-1.8-4-2.7c3.4-0.1,6.4,0.8,8.5,2.7c5.2,4.8,10,10,14.9,15
			c12.2,12.3,24.3,24.6,36.6,36.7c1.9,1.9,5,2.6,7.5,3.8c0.3-0.8,0.7-1.5,1-2.3c-1.9-1.4-3.7-2.8-6-4.6c1.8-0.3,3.7-0.2,5.9,0.2
			s4.5,1.3,6.9,2.4c14.5,6.8,32.6,24.4,40.8,38.3c0,0,0,0,0,0c0,0,0,0,0,0c-1.7-0.5-3.4-1.1-5.1-1.6c-0.2,0.2-0.4,0.4-0.5,0.6
			c6.5,4.8,12.9,9.6,19.4,14.5c6.5,4.9,13.1,9.7,19.7,14.7c0.7-3,1-5.4,1.8-7.6c0.6-1.9,1.8-3.5,3.1-6.1c1,7.4-8.4,15.3,2.2,19.8
			c3.8-9.8,7.5-19.3,11.2-28.8c4-4.3,8-8.6,12-12.9c0,0,0,0,0,0C756.5,684.7,760.6,680.1,764.7,675.4z M576.3,603
			c-5.8-4.7-11.7-9.4-17.5-14.1c0.5-0.7,1-1.3,1.5-2c5.9,4.6,11.7,9.2,17.6,13.8C577.4,601.5,576.8,602.3,576.3,603z M642.5,618.5
			c-19.6-15.7-43.2-25.7-60.9-44c0.6-0.8,1.2-1.6,1.9-2.4c20.2,14.8,40.4,29.5,60.6,44.3C643.5,617.1,643,617.8,642.5,618.5z
			 M689.3,652.8c-8-2-16-4.1-24.1-6.1c0.2-0.7,0.4-1.5,0.6-2.2c8,1.9,16.1,3.9,24.1,5.8C689.8,651.1,689.5,652,689.3,652.8z
			 M361.7,475.6c-4.2-9.5-15.2-13.2-24.2-8.1c7.5,2.7,14.7,5.3,22,7.9C360.1,475.6,360.9,475.5,361.7,475.6z M351.2,449.2
			c-1.4,2.1-2.3,3.7-4.6,7.3c-6.7-27-1.9-51.8-1.8-77.5c-1.2,0-2.2-0.1-3.2,0c-25.2,3.1-46.3,17.3-69.3,26.3c-1.3,0.5-2.3,2.1-3,3.4
			c-5.5,10.3-11.1,20.6-16,31.1c-1,2.1-0.2,5.9,1.2,7.9c5.4,8,13.7,11.5,23,13.1c20.6,3.5,41.1,3,61.8,1.1
			C349.3,461.1,350,461,351.2,449.2z M539.2,520.7c-0.5-0.7-1.1-1.3-1.6-2c-6.8,3.5-13.5,7.1-20.4,10.7
			c-24.2-19.5-38.6-26.4-53.1-25.8c-2,5.7-4,11-6.8,18.8c-2.4-4.2-3.8-6.7-5.1-8.8c-0.9,0.7-2.3,3-4,3.1c-1.2,0.1-2.6-2.6-4-4
			c-0.1,0.4-0.3,0.8-0.4,1.3c-16.2-3.7-32.4-7.6-48.7-11.1c-17.1-3.6-34.3-6.9-51.5-10.3c-0.2,0.7-0.4,1.3-0.6,2
			c59.8,12,119.7,23.7,170.8,61.5C511.3,535.5,522.8,526.3,539.2,520.7z M493.4,534.4c-2.9-3.5,2-8,2.5-11.9c-0.1,0-0.1,0-0.2,0
			c-2.1,2.9-4.2,5.9-6.9,9.7c-2-0.8-4.7-1.9-7.5-2.9c-0.1,0.1-0.1,0.2-0.2,0.3c0-0.1,0.1-0.2,0.1-0.3c-3.3-1.3-6.7-2.6-10.6-4.1
			c1.1-4,2.1-7.4,3.1-10.8c-2,2.9-3.9,5.8-6.7,9.8c-1.8-1.4-5.9-3.4-5.6-4.6c0.8-4.4,2.6-8.9,5.2-12.5c0.5-0.7,6,2,9.2,3.2
			c3.5,0.7,7,1.5,10.3,2.2c-1.9,6.4-3.4,11.6-4.9,16.8c0,0,0,0,0,0c0,0,0,0,0,0c2.2-4.5,4.5-9,7.9-15.7c2.7,3.7,4.6,6.4,6.4,9l0,0
			c0.1-0.1,0.2-0.2,0.2-0.2c0,0,0,0,0,0c0,0.1,0,0.2,0,0.3c2.6,0.2,5.3,0.5,9,0.8c-2.7,5.6-4.7,9.7-6.8,13.9
			C495.7,536.3,494.2,535.4,493.4,534.4z M504.6,542.7c-7.4-7.5-0.1-11.2,1.7-17.8C512,532.6,505.2,536.4,504.6,542.7z M856.1,822.4
			c0.5,0.1,0.9,0.2,1.4,0.3c3.3-7.4,6.6-14.8,9.9-22.2c-1.3-0.5-2.7-0.9-4-1.4C861,806.9,858.6,814.7,856.1,822.4z M879.9,725.5
			c-24.3-19.4-49.5-36.5-83.3-30.4c-4.9,0.9-10.3-1.3-15.5-2c2.6-1.9,4.9-2.1,7.2-1.8c3.8,0.4,6.3-1.2,4.1-4.5
			c-0.9-1.3-5.6-0.2-8.6-0.2c0.4-0.9,0.9-2.1,1.5-3.3c-15.6-6.5-15.6-6.5-29,3.6c-0.6,0.5-1.3,0.9-1.9,1.3c-0.7,0.4-1.4,0.8-2.1,1.2
			c-4,4.3-8,8.6-12,12.9c-1,3.6-2,7.3-3,10.9c-1,3.6-2,7.3-2.8,10.9c-1.9,8.6,0,16.2,7.7,21.4c7.5,5.1,15.1,9.9,23.6,15.5
			c-1.7-18.2,0.6-34.3,7.3-49.8c-3.4,20.4-6.6,40.7,5.1,59.7c-1-11.6-2.1-23.1-3.1-34.7c7.8,37.2,8.4,39.1,14.8,43
			c-4-16.3-4.1-26.2-1.3-31.3c2.9,9.4,7.5,20.1,9.4,31.2c2.7,15.5,18,16,26.1,24.7c-0.6-3.5-1.2-7-1.8-10.3
			c6.6,9.3,12.9,18.4,19.3,27.4c0.7-0.4,1.3-0.8,2-1.1c-0.5-2-0.9-4-1.4-6.1c0.4-0.1,0.8-0.3,1.1-0.4c2.4,4.3,4.9,8.5,7.3,12.8
			c1.6-0.9,2.7-1.2,2.9-1.7c3.6-12.5,7.1-25,10.8-37.5c0.5-1.6,2-2.9,2.7-4.5c4.6-10.1,9.1-20.2,13.6-30.3c1.4-3.1,2.3-6.4,3.4-9.6
			c1-3.1,2-6.2,3.1-9.4C885.3,731.3,883,728,879.9,725.5z M757.2,749.5c-0.8-0.2-1.5-0.4-2.3-0.6c2-7.7,3.9-15.5,5.9-23.2
			c0.7,0.3,1.4,0.6,2.2,0.9C761.1,734.2,759.2,741.8,757.2,749.5z M746.3,702.3c6.6-6.9,12.2-12.8,17.9-18.7
			c0.6,0.5,1.3,1.1,1.9,1.6C759.8,690.6,753.6,696,746.3,702.3z M833.2,779.1c1-14.9,5.9-26.2,13.5-36.5
			C842.5,754.1,838.2,765.6,833.2,779.1z M249.1,440.1c5.5-10.3,11-20.5,16.7-31.1C256.6,411.2,246.3,431.3,249.1,440.1z
			 M387.4,372.1c-15.2-0.9-29.2,8.8-27.5,18.4C368.8,384.5,377.7,378.6,387.4,372.1z M353.9,438.3c4.3-8.9,2.3-22.9-4.7-25.9
			c0.8,8.9,1.6,17.3,2.4,25.7C352.4,438.1,353.1,438.2,353.9,438.3z M359,408.1c2.4,21.8,4.9,43.6,8.3,65.3
			c0.6,3.8,4.8,8.7,8.5,10.1c34.7,13.3,70.9,18.5,107.9,15.8c22.1-1.6,28.4-9.9,26.6-31.5c-2-24.8-4.1-49.5-6.6-74.2
			c-0.2-2.4-2.7-6.1-4.8-6.7c-22-5.9-44.1-11.5-66.4-16.6c-4.2-1-9.1-0.3-13.3,0.9c-9.7,2.7-19.2,6.2-28.8,9.3
			c-0.1-0.2-0.2-0.3-0.3-0.5c6.8-3.2,13.6-6.5,20.5-9.7c-21.7-1.5-35.5,13.4-51,24.4c-0.8,0.6,0.2,3.7,0.4,5.7c0.5,0,1,0,1.6,0
			C360.7,403.1,358.7,405.7,359,408.1z M207.9,446c5.4,2.1,10.2,3.9,16.1,6.1C220.3,444.5,214.5,442.4,207.9,446z M206.9,435.4
			c0.3,1.2,0.6,2.4,0.9,3.6c9.5-0.9,19-1.8,29.3-2.8c-1.5-6.1-2.5-10-3.6-14.9C224.6,426.8,212.6,425,206.9,435.4z"/>
	</g>
</g>
<g>
	<g>
		<path class="st1" d="M877.5,660.4c-9-8-19.2-12.1-31.2-11.5c-2.8,0.1-5.5,1.3-8.3,2c2,2.7,3.4,6.6,6,7.8
			c10.6,4.8,21.1,10.2,33.4,10c0.6,0,1.2,0,1.8,0.1c3.8,0.3,7.6,1.8,11.4,2.7c0,0,0-0.1,0-0.1c-0.4-1-0.6-2.5-1.2-3.2
			c-0.1-0.1-0.2-0.2-0.3-0.3C885.4,665.2,880.9,663.5,877.5,660.4z M757.7,773.1c-18.8,3.8-37.6,7.8-56.3,11.7
			c-0.2-0.8-0.3-1.5-0.5-2.3c10.5-1.8,12-4.3,12.5-15.3c0.4-8.1,2.3-16.2,3.3-24.3c0.2-1.7-0.5-3.6-0.9-5.3
			c-1.7-7.5-6.9-12.2-12.4-17.2c-9-8.2-17.2-17.1-26.6-26.6c0.7,0.2,1.3,0.4,1.8,0.6c0.6,0.2,1.1,0.3,1.5,0.5c1,0.3,1.8,0.5,2.6,0.8
			c0.2-0.2,0.4-0.4,0.5-0.6c-13.4-7.7-27-15-40-23.2c-9-5.7-19.3-11.2-25.3-19.4c-11.5-15.7-25.7-27.5-42.1-37
			c-15.9-9.2-29.8-23.1-50.3-22c10.2,9.3,15.5,21.3,17.1,34.9c-0.8,0.4-1.6,0.8-2.4,1.3c-6.8-12-13.6-24-20.4-36
			c6.1,18.2,5.9,36.2-1,55.2c-7.2-19-7.4-37.1-2.4-55.6c-5.6,21.1-19,35.2-37,46.9c2.9-22.7,15.9-37.4,33-49.8
			c-17.2,10.2-35.1,14.4-56,11.7c16.2-10.2,32.3-15.7,50.2-14.9c-12-3.5-24.1-7-36.1-10.4c0.2-0.8,0.4-1.6,0.6-2.5
			c14.7-3.4,28,0.4,39.7,8.5c-3.6-7.6-7.4-15.6-11.2-23.6c1-0.6,2-1.1,3-1.7c4.7,7,9.3,13.9,13.7,20.4c4.4-11.2-1.7-15.8-11.3-21.3
			c-33.3-19-68.4-32-105.9-40.5c-27.7-6.3-54.6-16.4-81.7-25.1c-8-2.6-15.6-6.1-23.4-9.2c-0.2,0.4-0.3,0.8-0.5,1.2
			c2.7,1.7,5.5,3.5,9,5.7c-3,1.2-5,2-6,2.4c1.5,2.1,4.2,4.3,4.2,6.3c-0.1,6.5-1.3,12.9-2,18.8c-1.8-1-4.3-2.5-8.6-5
			c1,6.8,1.7,11.4,2.5,16c1.1,6.7,3.2,7.6,9.1,3.9c4.4-2.8,8.8-5.6,13.3-8.4c0.5,0.6,1.1,1.2,1.6,1.8c-4.8,11-9.1,22.3-18.8,26.3
			c8.4-0.4,19.1-1,29.8-1.5c0.2,1.2,0.4,2.5,0.6,3.7c-8.4,2.5-16.7,5-25.4,7.5c4.8,2.9,9,5.5,13.2,8c-0.5,1.1-0.9,2.1-1.4,3.2
			c-7.4-2.1-14.8-4.1-21.9-6.1c1,4.1,2.1,8.6,3.2,13c-0.8,0.3-1.7,0.6-2.5,0.9c-2-2.8-4-5.6-6-8.4c-0.8,0.3-1.7,0.6-2.5,0.9
			c0.8,2.2,1.5,4.4,2.5,6.5c1.5,3,3.2,6,4.8,9c-2.8,0.7-5.6,1.4-9,2.3c9,7.3,17.9,14.1,26.3,21.5c33.1,29.3,68.7,55.2,106.4,78
			c39,23.6,78.8,45.8,118.6,68.1c9.7,5.5,20.4,10,31.1,12.9c43.5,11.7,87.9,17.5,133,16.1c24.4-0.8,48.4-4.7,71.5-13.7
			C765.8,772,761.7,772.3,757.7,773.1z M472.6,562.7c-3.9-1.1-7.5-1-9.6-2.8c-17.8-15.1-37.6-26.5-59.8-33.9
			c-0.4-0.1-0.6-0.8-1.5-1.9C416.2,523.9,469.5,551.9,472.6,562.7z M395.6,623.5c5.9,1.5,11.9,2.4,17.4,4.7c5.6,2.3,10.8,5.9,16.1,9
			c-0.3,0.9-0.6,1.8-0.9,2.7c-10.6-2.7-21.2-5.3-31.2-7.9c2.3,2.7,5.3,6.3,8.3,9.8c-0.7,0.7-1.4,1.4-2.1,2.1
			c-3.6-3.6-7.2-7.2-10.8-10.7c-1.2-1.1-2.7-2.9-3.9-2.7c-1.1,0.1-2.2,2.2-3.1,3.6c-2.6,4-5.2,8.1-7.7,12.1
			c-0.9-0.5-1.7-1.1-2.6-1.6c1.4-3.5,2.9-6.9,4.2-10.2c-8.6,3.3-17.3,6.6-26,10c-0.6-1.1-1.2-2.3-1.8-3.4c7.5-5.1,15-10.2,23-15.6
			c-18.1-1.4-34.6-7.2-48.9-22.2c20.9,2.2,38.2,9.2,55.6,17.1c-24-12.1-38.9-31.4-48.6-57.9c20.5,13.4,38.3,26.7,48.1,47.9
			c-9-23-8.1-46.1-0.3-70.7c16.1,26,17.9,52.2,9.1,80c5.6-11.5,10-23.9,17.2-34.4c7.3-10.6,17.3-19.3,26.1-28.8
			c0.9,0.5,1.8,1.1,2.8,1.6c-4.7,10.7-8.3,22.1-14.5,31.9c-6,9.6-14.6,17.6-20.6,24.6c12.1-5.8,26.5-12.6,42.3-20.1
			C439.4,608.4,423.8,617.4,395.6,623.5z M607.4,645.9c7.9,8.4,0.7,11.6-2.8,15.6C605.4,656.9,606.2,652.3,607.4,645.9z
			 M571.6,766.1c4.5-3.2,8.9-6.4,13.4-9.6c0.4,0.3,0.8,0.6,1.3,0.9c-0.5,1.6-1.1,3.3-1.6,4.9c8.7,5.1,7.3-7.3,11.9-7
			c2.8,2.2,4.8,3.7,7.3,5.7c-9.5,5.1-20.3,6.5-31.2,7C572.3,767.4,572,766.8,571.6,766.1z M600.5,773.3c3.3-5.4,5.9-9.8,8.6-14.1
			c0.8,0.5,1.5,0.9,2.3,1.4C611.7,768.6,609,772.6,600.5,773.3z M624,752.2c6.5,7.1,13,14.1,19.5,21.2
			C629.2,770.3,626.7,767.4,624,752.2z M674.2,770.4c-8-1.6-16-3-23.9-4.9c-1-0.2-1.4-2.6-2.1-4c4.6,0.4,6.6-7.5,12.2-3.9
			c5,3.2,9.9,6.5,14.8,9.7L674.2,770.4z M776.7,634.3c-1.1-1.9-2.3-3.8-3.6-6c-2.4,1.2-4.4,2.1-6.4,3.1
			C768.2,638.7,771.6,638.7,776.7,634.3z M918.3,571.9c2.6-5.4,5-10.3,7.4-15.3c0,0,0-0.1,0-0.1c0.9-4,2.1-8.2-1.3-11.4
			c-0.5-0.5-1.1-0.9-1.8-1.3C915.7,561.4,914.1,561.2,918.3,571.9z M134.3,429.3c0.3,1,0.7,2,1,3c15.3-4.8,30.6-9.6,46-14.4
			c-0.3-0.9-0.5-1.7-0.8-2.6C165.1,420,149.7,424.6,134.3,429.3z M749.4,233.8c16.5,8.9,33.8,16.4,50.7,24.4c0.5-1,0.9-1.9,1.4-2.9
			c-5.3-2.6-10.8-5-16-7.9c-8.7-4.8-17.6-9.3-25.8-15c-2.7-1.9-3.2-6.9-4.7-10.5c3.8-1.2,8.1-4.3,11.2-3.3c6.3,1.9,13,4.9,17.9,9.2
			c22,19.5,42.8,40.5,58.3,65.6c24.6,39.9,42.5,82.8,56.4,127.6c9.7,31.1,25.8,60.5,21.6,94.8c1,0,2-0.1,3.1-0.1
			c-0.6-10.3,0.3-21-2.1-30.8c-5.6-23.6-12.6-47-19.4-70.3c-8.7-29.7-18.1-59.1-32.6-86.6c-21.9-41.7-45.1-82.4-83.9-111.4
			c-10.6-7.9-21.7-13.7-35-14.1c-12.1-0.4-16.8,5.7-12.2,16.9C740.3,224.9,744.4,231.1,749.4,233.8z M919.6,575.4
			c-1.6,5.8-2.4,11.9-3.5,17.8c0.8,0.1,1.6,0.2,2.4,0.4c1.3-1.3,2.5-2.7,3.5-4.1c0.9-1.2,1.7-2.5,2.4-3.7c0.1-0.2,0.2-0.4,0.3-0.6
			c0,0,0,0,0-0.1c1.1-2.2,2-4.4,2.5-6.6c1.7-6.8,1.1-14.1-1.5-21.8C923.6,562.9,921.3,569.1,919.6,575.4z M914,535.9
			c-4.7-1.8-8.6-3.3-12.5-4.8c-0.4,0.6-0.8,1.2-1.1,1.8c0.8,1.7,1.6,3.3,1.7,3.6c-4.5-1.4-9.7-3-14.8-4.7c-0.3,0.8-0.6,1.6-0.9,2.4
			C891,541.6,904.7,542.9,914,535.9z M884.2,677.6c1.1-0.6,2.2-1.2,3-0.6c0.4,0.3,0.7,1,1,2.2c0.9-2.6,1.7-5.1,2.6-7.7
			c-16.6,0.6-33.1,1.4-50.1,6.7c-2.4,0.8-4.9,1.6-7.4,2.5c3.8,1.1,5.9,2,8.2,2.4c14.3,2.6,28.3,1.8,41.5-4.8
			C883.3,678.1,883.7,677.9,884.2,677.6z M442.5,359.1c-6.2-2.6-11.1-4.4-15.7-6.7c-1.4-0.7-2.1-2.8-3.1-4.3
			c1.8-1.2,3.5-2.8,5.5-3.3c1.2-0.3,3,0.7,4.4,1.5c18.6,11.2,39.3,15.6,60.5,18.3c11.8,1.5,23.5,3.2,35.3,4.8c0,0.8-0.1,1.5-0.1,2.3
			h-39.1c0,0.9,0,1.8,0,2.7c30.5,13.1,61.3,15.6,92.5,1.4c3.6-1.6,6.2-5.4,9.3-8.2c-0.4-0.5-0.8-1-1.2-1.5
			c-10.2,3.9-20.5,7.7-30.7,11.6c-0.4-0.9-0.7-1.8-1.1-2.7c7.6-3.2,15-6.9,22.8-9.6c19-6.6,38.1-12.7,57.3-18.8
			c1.9-0.6,4.4,0.5,6.6,0.7c-0.1,0.7-0.2,1.5-0.2,2.2c-12.1,2.9-24.1,5.7-36.2,8.6c0.2,0.9,0.5,1.8,0.7,2.7
			c7.5-1.9,15.3-3.2,22.6-5.8c19.2-6.8,36.1,5.3,54.4,5.9c0.6,0,1.2,0.9,1.8,1.4c12.9,9.8,25.7,19.9,38.8,29.4
			c5.2,3.8,11.2,6.6,16.9,9.8c-6.9-6.4-14.7-11.3-21.6-17.2c-5.5-4.7-9.6-10.9-14.9-15.8c-4.6-4.3-9.5-7.9-7.4-15.1
			c-3.1,0.6-5.5,1-7.2,1.4v-30.2c-1.1-0.3-3.8-0.9-5.8-1.4c2.3-3.8,6-7.3,6.3-11c0.8-13,0.6-26.1,0.5-39.2c0-2.5-0.6-6.5-2-7.1
			c-7.9-3-4-6.2-0.3-9.2c-4.4-3.5-8.3-6.5-13.2-10.5c7.6,14.4,7.1,28.4,6.1,43.8c-15.3-13-19.1-29.4-19.5-47.2
			c-1.8,17.1-11.6,29.5-23.2,43c-0.1-16.6,5.3-29.7,13.4-42.8c-8.7,5.4-16.5,10.4-24.4,15.3c-0.6-0.7-1.1-1.5-1.7-2.2
			c5-11.1,14.2-18.1,25.4-23.6c-6.9-2.2-13.1-4.2-19.4-6.1c0.1-0.8,0.2-1.7,0.3-2.5h20.3c-1.8-2.3-3.3-4.1-6-7.4
			c5,1.2,8.1,2,11.2,2.7c0.4-0.8,0.9-1.6,1.3-2.4c-1.7-1-3.6-3-5.2-2.8c-9.1,0.9-18.1,2.3-27.2,3.7c-16,2.4-32,4.9-48,7.1
			c-2.5,0.3-5.3-1.2-8-1.9c6.1-1.2,12-0.3,17.6-1.4c14.1-2.8,28.3-5.7,42-9.9c21.8-6.7,43.7-10.7,66.6-8.1
			c5.2,0.6,10.6-0.1,15.9-0.2c0-1.1,0-2.3,0-3.4c-14.1-6-28.9-7.8-44-8h34.2c0-0.7,0-1.3,0.1-2c-6.1-0.8-12.2-1.5-18.4-2.3
			c0-0.5,0.1-1,0.1-1.6h34.2c-7.4-2-14.9-2.7-22.4-3.4c-27.8-2.8-53.2,6.8-78.7,15.4c-32.6,10.9-65.6,15.8-99.6,6.3
			c-32.3-9-64.7-17.5-97.1-26c-15.5-4.1-31.2-7.3-47.4-5.2c-36.9,4.8-70.3,18.3-100.9,39.3c-1.7,1.2-3.4,2.5-4.7,4
			c-6.8,7.9-13.6,15.8-20.2,23.8c-7.8,9.5-16.9,18.3-23.1,28.8c-16.9,28.8-35.6,56.2-58.2,80.9c-1.2,1.3-2,2.8-3,4.3
			c7.7-6.4,14.4-13.4,20.4-20.9c18.3-22.7,34.9-46.8,54.7-68c32.4-34.6,73.6-55.8,118.1-71.1c3.4-1.2,7.7-3.5,8.8,2
			c0.3,1.8-3.2,5.3-5.7,6.5c-18.7,9.4-37.5,18.5-56.4,27.5c-14.2,6.7-21.3,18.3-23.9,34.1c19.6-20.5,42.1-34.9,70.3-42.5
			c-20.5,25-37.5,51.4-69.6,61.3c33.3-9.9,65.5-7.3,98.3,5c-34.6,19.2-69.7,20.4-106.4,8.7c32,11.5,56,31.9,75.1,61.8
			c-28.8-4.2-47.5-22.9-66.8-38.9c5.6,16.8,11.4,34.2,17.2,51.6c-0.6,0.4-1.2,0.9-1.8,1.3c-1.7-0.8-3.8-1.3-5-2.5
			c-3.7-3.6-7-7.6-10.7-11.3c-1.1-1.1-2.9-1.7-4.5-2.2c-0.3-0.1-1.5,1.5-1.5,2.4c-0.5,6.5-0.8,12.9-1.2,19.6
			c-27.2,11-54.6,22-81.9,33c2.2,1.2,3.9,0.9,5.5,0.3c27.3-9.1,54.8-18,81.9-27.5C333.5,366.5,385,349.7,442.5,359.1z M643.5,325.6
			c3.2,1.2,6.3,2.4,10,3.8c-3.1-5-5.8-9.3-8.5-13.6c0.9-0.6,1.8-1.2,2.6-1.8c2.9,3.7,5.8,7.3,8.7,11c0.9-5.6,1.7-11.2,2.6-16.8
			c1,0,2,0.1,3,0.1c0.4,6.1,0.7,12.2,1.1,19.1c4.2-4.5,7.9-8.5,11.6-12.4c0.5,0.5,1.1,0.9,1.6,1.4c-2.3,3.9-4.5,7.7-7.3,12.3
			c3.2-0.8,5.7-1.5,8.2-2.2c0.3,0.7,0.6,1.5,0.9,2.2c-4.3,1.9-8.6,3.9-12.8,5.8c1.7,1.5,3.6,3.2,5.5,4.9c-8-0.6-15.5-1.1-24.3-1.7
			c2.4-1.4,4.2-2.6,6.3-3.9c-3.4-2.1-6.9-4.3-10.3-6.5C642.9,326.8,643.2,326.2,643.5,325.6z M548.1,230.6
			c7.4,15.2,11.6,29.8,12.9,45.9c1.3,16.2-6.5,30.1-9,47.5c8.5-14.9,14.5-28.8,23.5-40.3c9-11.5,21-20.7,32.5-30.2
			c-6.9,29.6-23.7,52.1-49.1,68.8c18-11.3,36.8-19.6,58-22.1c-15.1,19.1-35.2,27.7-59.7,27.4c15.9,1.7,29,8.6,40.8,18.7
			c-2.1,0.5-4.2,0.7-6.3,0.7c-0.8,0-1.6,0-2.4-0.1c-1.2-0.1-2.5-0.3-3.8-0.5c-0.4-0.1-0.8-0.2-1.2-0.3c-1-0.2-2-0.5-3.1-0.9
			c-0.9-0.3-1.9-0.6-2.8-1c-0.2-0.1-0.4-0.2-0.6-0.2c-0.2-0.1-0.3-0.1-0.5-0.2c-1.1-0.4-2.2-0.9-3.4-1.5
			c-5.1-2.4-10.8-5.7-17.7-10.1c0,0.1,0,0.1-0.1,0.2c3.5,4.2,7,8.4,10.9,12.9c1.3,1.6,2.7,3.2,4.1,4.8c-12.3-1.9-17.8-9.2-14.9-17.8
			c0,0,0,0,0,0c-0.5,1.4-0.9,2.9-1.4,4.3c-1.4,4.5-2.8,8.9-4.1,12.9v-14.8c-0.6-0.3-1.2-0.6-1.8-0.9c-1.6,8.4-5.4,14.9-14.9,18.1
			c2.4-5.4,4.4-9.7,5.9-13.1c-11.1,3.5-22.8,7.2-34.5,10.9c-0.5-1.2-1-2.3-1.5-3.5c11.3-6.2,22.6-12.4,32.8-18
			c-19.3-2.2-38.3-9.8-51.9-28.5c9.4,3.1,18.8,5.9,28,9.5c9.3,3.7,18.4,8.1,28.1,11.8c-24.5-15.3-39.4-37.6-48.5-66.1
			c23.1,15.7,41.7,33.3,51.8,58.2C535.1,285.8,537.2,258.8,548.1,230.6z M381.8,241c6.3-12.7,17.4-19.4,30.1-22.9
			c-7.5-2.3-15.2-4.7-22.9-7c0.2-1,0.4-2,0.6-3.1c7.5,0.9,15.1,1.7,24.3,2.7c-8.8-4-18.6-5.1-20.3-15.3c-0.5-3.1,1.2-6.7,1.6-8.6
			c6.7,3.9,12.2,8.9,18.5,10.4c32.8,7.7,65.9,14.6,98.9,21.6c4.5,0.9,9.1,1.1,13.6,2.2c-27.7,5-54.3-2.9-81.2-7.3
			c7.8,3.2,15.5,6.4,23.3,9.6c-0.3,1.1-0.7,2.1-1,3.2c-12.6-2.4-25.2-4.8-37.8-7.1c16.7,6,27.7,18.8,36.5,34
			c-16.9-5.2-30.1-15-39.6-30.4c10.7,17,11.3,35.4,9.3,54.2c-0.8,0.3-1.6,0.7-2.3,1c-4-8.8-9.5-17.4-11.7-26.6
			c-2.3-9.6-1.4-20-2.3-30.5c-3,19.1-11.1,35.7-25.5,48.6c-2.2-8.6,3.1-22.8,16-42.5c-9.1,5.3-17.9,10.5-26.6,15.6
			C382.7,242.3,382.2,241.6,381.8,241z M391,321.5c0.4-1,0.9-2.1,1.3-3.1c6,2.3,12,4.7,18,6.9c2.1,0.8,4.4,1.1,6.7,1.7
			c0,0,0-0.1,0-0.1c-10.6-6.6-18.5-15.5-23.5-28.6c1.6,0.8,3.2,1.7,4.6,2.6c10.1,6.3,16.3,14.7,18.9,25.9c0,0,0.1,0.1,0.1,0.1
			c0.2-2,0.9-4.1,0.6-5.9c0-0.3-0.1-0.5-0.2-0.8c-3.8-11.1-2.8-21.9,0.8-34.4c8,13.4,7.7,26.1,3.5,38.8c7.5-9.8,14.8-19.4,22.1-28.9
			c1.2,0.9,2.4,1.8,3.7,2.7c-6.5,9.3-12.9,18.5-18.6,26.7c5.6-2.4,13.2-5.5,20.8-8.7c0.5,1,0.9,2,1.4,3c-8,3.9-16.1,7.7-23.5,11.3
			c3.7,1.7,8.4,3.8,14.7,6.7c-10.3,2.9-19.9-11.9-27.2,3.5c2.4-7.5,0.8-10.6-6.8-11.8C402.3,328.2,396.8,324.2,391,321.5z
			 M863.8,571c4.9-7.4,8-16,12.1-24.5c-7.1-2.1-8.9,1.7-11.1,5.4c-21.9,36.7-50.6,66.6-88.1,87.6c-2.2,1.2-4.2,2.5-6.3,3.8
			c0.2,1,0.4,2.1,0.6,3.1c3.5-0.2,7.7,0.9,10.4-0.7C814.4,627.1,842.6,602.7,863.8,571z M915.2,620.1c10.3-8.5,14.9-21.7,12.2-33.4
			C918.4,595.8,913.5,606.4,915.2,620.1z M906.5,652.1c-5.2,21.8-16.6,40.2-31.8,56.5C884.9,712.6,905.3,676.2,906.5,652.1z
			 M914.3,634.7c1,0.4,2,0.9,3,1.3c2.3-5.8,4.7-11.6,7-17.3C917.3,622.3,910.7,626,914.3,634.7z"/>
	</g>
</g>
<g>
	<g>
		<path d="M648.2,761.4c0.7,1.4,1.2,3.8,2.1,4c7.9,1.9,15.9,3.3,23.9,4.9l1-3.2c-4.9-3.2-9.8-6.5-14.8-9.7
			C654.8,753.9,652.9,761.9,648.2,761.4z M665.3,646.7c8,2,16,4.1,24.1,6.1c0.2-0.8,0.4-1.7,0.6-2.5c-8-1.9-16.1-3.9-24.1-5.8
			C665.7,645.2,665.5,646,665.3,646.7z M643.5,773.4c-6.5-7.1-13-14.1-19.5-21.2C626.7,767.4,629.2,770.3,643.5,773.4z M927.5,660.9
			c12.8-25.8,16.4-53.4,17-81.7c0.3-13.6-2.5-26.4-10.2-38.2c-2-3-1.7-7.8-1.6-11.7c0.2-9.6,3-19.6,1-28.7
			c-6.7-31.2-14.2-62.3-22.7-93.1c-15.6-56.5-40.8-108.9-72.7-158c-43-66.2-114.4-92.8-190-71.3c-14.1,4-27.6,10.4-41.9,13.1
			c-32,6-64,5.2-95.8-3.9c-35.5-10.2-70.9-21.1-108.1-23.6c-45.2-3.1-86.6,6.2-124.5,32.3c-41,28.3-75.1,63.2-102.6,104.2
			c-36.1,53.7-70.5,108.6-105.6,163c-0.8,1.2-1.3,2.7-2.2,4.6c35.6-8.9,70.4-17.6,104.6-26.1c-2,1.4-4.6,3.2-9.1,6.3
			c23.4-1.7,43.7,1.8,63.4,8.4c2.5,0.9,4.5,3.4,6.8,5.1c-0.5,0.8-0.9,1.5-1.4,2.3c-2.7-0.7-5.4-1.1-7.9-2.2
			c-17.1-6.9-35-8.7-53.2-8.8c-31-0.1-60.8,7.4-90.7,14.3c-2,0.5-4,1.6-5.4,3c-2.4,2.5-4.4,5.5-6.5,8.3c3,1.6,5.9,3.4,9,4.6
			c2.1,0.8,4.7,0.7,6.9,1.3c8.6,2.2,17.1,4.6,25.7,6.9c-0.2,0.8-0.4,1.5-0.6,2.3c-2.7-0.8-5.3-1.6-8.1-2.3c-8.6-2.1-17.2-4.4-26-5.9
			c-2-0.4-4.5,2.1-6.8,3.3c1.3,2.3,2,5.6,4,6.8c3,1.8,6.9,2.2,10.4,3.3c21.8,6.8,43.9,12.5,65.2,20.5c34.7,13,67.7,29.3,96.8,53
			c42,34.3,84.2,68.5,127.1,101.7c21.1,16.3,44.5,29.6,66.1,45.3c52.9,38.5,109.4,67,175.5,76.1c56.5,7.8,111.8,7.1,166.7-8.7
			c5.6-1.6,9.6-0.9,14.2,2.7c20.6,16.5,40.6,34.1,62.7,48.4c27.5,17.9,48.4,17.7,64.7-16.7c6.3-13.2,10.3-27.4,15.5-41.2
			c6.3-16.6,3.9-24.7-10.9-34.8c-10.6-7.2-21.4-14.1-32.1-21.1c7.5-11.4,15.4-21.7,21.3-32.9C920.5,681.9,922.6,670.7,927.5,660.9z
			 M915.2,620.1c-1.7-13.7,3.2-24.3,12.2-33.4C930.1,598.5,925.4,611.6,915.2,620.1z M927.2,578.5c-0.6,2.3-1.4,4.5-2.5,6.6
			c0,0,0,0,0,0.1c-0.1,0.2-0.2,0.4-0.3,0.6c-0.7,1.3-1.5,2.5-2.4,3.7c-1,1.4-2.2,2.8-3.5,4.1c-0.8-0.1-1.6-0.2-2.4-0.4
			c1.1-5.9,1.9-12,3.5-17.8c1.7-6.3,4-12.5,6.1-18.7C928.3,564.4,929,571.7,927.2,578.5z M924.9,545.8c2.7,3.1,1.6,7,0.7,10.8
			c0,0,0,0.1,0,0.1c-2.4,4.9-4.8,9.8-7.4,15.3c-4.2-10.7-2.5-10.5,4.3-28c0.7,0.4,1.3,0.8,1.8,1.3
			C924.5,545.4,924.7,545.6,924.9,545.8z M750.4,202.5c13.3,0.4,24.4,6.2,35,14.1c38.9,29,62,69.6,83.9,111.4
			c14.5,27.6,23.9,57,32.6,86.6c6.9,23.3,13.8,46.7,19.4,70.3c2.4,9.9,1.5,20.5,2.1,30.8c-1,0-2,0.1-3.1,0.1
			c4.2-34.3-12-63.7-21.6-94.8c-13.9-44.8-31.8-87.7-56.4-127.6c-15.5-25.1-36.3-46.1-58.3-65.6c-4.9-4.3-11.5-7.3-17.9-9.2
			c-3.1-0.9-7.4,2.1-11.2,3.3c1.5,3.6,2,8.6,4.7,10.5c8.1,5.7,17,10.2,25.8,15c5.2,2.8,10.6,5.3,16,7.9c-0.5,1-0.9,1.9-1.4,2.9
			c-17-8-34.2-15.5-50.7-24.4c-5-2.7-9-8.9-11.2-14.4C733.6,208.2,738.3,202.1,750.4,202.5z M799.8,673.8c-2.3,1-4.5,2-7.5,3.3
			c5.8,0.3,10.5,0.6,17,0.9c-13.6,6.7-24.2,3.4-34.1-3.8C784.9,665.3,786.4,665.3,799.8,673.8z M765,670.5
			c11.9-8.9,12.8-9.2,18.1-6.2C777.2,666.5,773.8,673.2,765,670.5z M798.7,683.1c9.2,1.5,18.4,3,27.6,4.6c-0.2,1-0.3,2-0.5,2.9
			c-9.3-1.2-18.5-2.4-27.8-3.5C798.3,685.7,798.5,684.4,798.7,683.1z M781.5,645.9c-2.7,1.5-6.9,0.5-10.4,0.7
			c-0.2-1-0.4-2.1-0.6-3.1c2.1-1.3,4.2-2.6,6.3-3.8c37.5-21.1,66.1-51,88.1-87.6c2.2-3.7,3.9-7.5,11.1-5.4
			c-4.1,8.5-7.2,17.1-12.1,24.5C842.6,602.7,814.4,627.1,781.5,645.9z M758.1,595.9c-1.5-17.7-2.5-35.4-3.8-54.1
			c10.8-4.1,22.8-9.4,35.2-13.2c18.5-5.6,30.3,1.3,34.9,19.7c1,3.9-0.2,8.4-0.4,12.6h2.3c-0.2,1.7,0.1,4-0.8,5.1
			c-3.5,3.9-7.1,7.7-11.2,11.1c-5.5,4.5-11.1,9-16.7,13.5c-5.6,4.5-11.2,8.9-16.8,13.4c0,0,0.2-0.2,0.2-0.2c0,0,0,0,0,0c0,0,0,0,0,0
			c0,0,0,0,0,0c0,0,0,0,0,0c0,0,0,0,0,0c-7.3,2.9-14.6,5.8-21.9,8.8c-0.5-0.7-1-1.3-1.5-2c1.5-2,3-3.9,3.9-5.2
			C760.4,602.2,758.3,599.1,758.1,595.9z M654.9,569.3c-10.5-5-22.3-9.3-32.7-15.9c-22.2-14.1-44.7-27.3-70.8-32.7
			c0.3-1.1,0.6-2.1,0.9-3.2c13.4,4.8,26.8,9.7,40.3,14.3c4.8,1.6,9.9,3,14.9,3.4c10.4,0.7,20.9,0.4,31.3,1.1c3.8,0.2,7.4,2,10.8,4.5
			c-4.1-1-8.3-2-12.4-2.9C651,543.9,664.7,549.6,654.9,569.3z M655,503.3c-6.2,0.7-12.5,1.2-18.8,1c-26.7-0.7-53.4-1.7-80.1-2.7
			c-2.1-0.1-4.1-0.5-6.2-1c-19.1-4.6-21.6-8-20.4-27.7c1.4-22.2,2.7-44.4,4.2-66.6c0.3-4.4,1.2-8.8,1.8-13.3
			c21-1.5,40.6-6.1,59-15.9c4.7-2.5,12-1.3,17.8-0.4c4.4,0.7,8.6,3.6,12.8,5.5c-3.4-2.5-6.9-5-10.3-7.6c0.1-0.7,0.1-1.3,0.2-2
			c3.5,0.6,7.4,0.5,10.5,2.1c7.3,3.8,14.2,8.4,21.3,12.7c-6.4-5.1-12.8-10.3-19.1-15.3c0.7-0.3,1.4-0.5,2.3-0.6
			c0.8-0.1,1.8-0.1,2.7,0.1c1,0.1,2,0.4,3.1,0.7c14,4.4,35.9,24.5,35.1,35.7c-4.2-3.1-8.4-6.1-12.6-9.1c3.4,4.1,7,8.1,10.1,12.4
			c1.7,2.4,2.7,5.4,2.5,9.1c-1.7-1.3-3.4-2.6-5-4c7.9,8.2,5.6,18.3,4.9,28c-1.1,15.7-2.7,31.3-3.8,47
			C666.4,499,661.9,502.5,655,503.3z M513.9,556c-51-37.7-111-49.4-170.8-61.5c0.2-0.7,0.4-1.3,0.6-2c17.2,3.4,34.3,6.6,51.5,10.3
			c16.3,3.5,32.5,7.4,48.7,11.1c0.1-0.4,0.3-0.8,0.4-1.3c1.3,1.4,2.7,4.1,4,4c1.6-0.1,3.1-2.3,4-3.1c1.3,2.2,2.7,4.6,5.1,8.8
			c2.8-7.8,4.7-13.1,6.8-18.8c14.5-0.6,28.9,6.3,53.1,25.8c6.9-3.6,13.7-7.2,20.4-10.7c0.5,0.7,1.1,1.3,1.6,2
			C522.8,526.3,511.3,535.5,513.9,556z M361.7,475.6c-0.9-0.1-1.6,0-2.2-0.2c-7.3-2.6-14.5-5.2-22-7.9
			C346.6,462.4,357.5,466.1,361.7,475.6z M351.6,438c-0.8-8.4-1.6-16.8-2.4-25.7c7,3,9,17.1,4.7,25.9
			C353.1,438.2,352.4,438.1,351.6,438z M360,400.5c-0.2-2-1.2-5.1-0.4-5.7c15.6-11.1,29.3-25.9,51-24.4c-6.8,3.2-13.6,6.5-20.5,9.7
			c0.1,0.2,0.2,0.3,0.3,0.5c9.6-3.2,19.1-6.6,28.8-9.3c4.2-1.2,9.2-1.9,13.3-0.9c22.2,5.1,44.3,10.7,66.4,16.6
			c2.1,0.6,4.6,4.2,4.8,6.7c2.4,24.7,4.5,49.5,6.6,74.2c1.8,21.6-4.5,29.9-26.6,31.5c-37,2.7-73.2-2.5-107.9-15.8
			c-3.7-1.4-7.9-6.3-8.5-10.1c-3.4-21.7-5.9-43.5-8.3-65.3c-0.3-2.4,1.6-5,2.5-7.6C361,400.5,360.5,400.5,360,400.5z M387.4,372.1
			c-9.6,6.4-18.5,12.4-27.5,18.4C358.1,381,372.2,371.2,387.4,372.1z M644.2,371.8c7.9-0.5,19.3,9.2,23.3,20.4
			C659.7,385.3,651.7,378.3,644.2,371.8z M668.4,551.6c7.1-3.1,14.5-6.3,22.1-7.2c12.4-1.6,25-1.7,37.6-1.7c5.3,0,10.5,1.8,17,3
			c0,19.2,0.3,37.4-0.3,55.6c-0.1,3.1-4.5,6.2-7.2,9c-1.4,1.4-3.7,2.1-6.1,3.4c-12.8-8.4-26.2-17.4-39.9-26
			c-6.9-4.3-14.3-7.6-21.3-11.7c-2.8-1.6-7-4.1-7.1-6.4C662.8,563.3,660.2,555.2,668.4,551.6z M689,491.1c-7.2-0.2-10.4-4.2-10.3-11
			c0.3-13.8,0.6-27.6,1.2-41.3c0.5-11.8,1.1-23.5,2.1-35.2c0.5-5.9,1.7-11.7,2.7-18.8c23.8,5.9,46.1,12.8,64.9,27.9
			c0.1-1.2,0.3-2.4,0.4-3.7c12.1,5.5,24.2,26.7,22.9,39.1c-6.4-10.2-12.8-20.5-19.3-30.9c2.9,5.8,5.5,11.8,8.7,17.4
			c8.3,14.4,12.7,29.8,12.8,46.4c0,1.9-1.4,4.9-2.9,5.6c-5.6,2.6-11.5,6.2-17.4,6.2C732.9,492.8,711,491.7,689,491.1z M812.6,491
			c-9.1-0.8-17.5-1.1-25.8-2.5c-1.8-0.3-4.1-4.4-4.2-6.8c-0.4-16.7-0.2-33.3-0.2-51.4c7.5,8.1,14.9,15.9,22,23.9
			c7,7.9,13.1,16.4,13.5,27.7c0.1,2.5,0.4,5,0.7,7.5c-1,0.2-2,0.4-3,0.6c-1.3-4.9-2.6-9.9-4-14.8c-0.2,0-0.4,0.1-0.6,0.1
			C811.5,479.8,812,484.4,812.6,491z M781.1,603.7c0,0-0.2,0.2-0.2,0.2c0,0,0,0,0,0c0,0,0,0,0,0l0,0c0,0,0,0,0,0l0,0
			c9.9-6.6,19.9-13.1,29.8-19.7c0.8-0.6,1.5-1.3,2.6-2.2c-5,13.1-35.4,32.2-53.8,34.2C766.6,612.1,773.8,607.9,781.1,603.7z
			 M773,628.3c1.4,2.3,2.5,4.2,3.6,6c-5.1,4.4-8.5,4.5-10-2.9C768.6,630.4,770.6,629.4,773,628.3z M840.5,678.2
			c17-5.2,33.6-6.1,50.1-6.7c-0.9,2.6-1.7,5.1-2.6,7.7c-0.2-1.2-0.5-1.9-1-2.2c-0.8-0.6-1.8-0.1-3,0.6c-0.4,0.2-0.9,0.5-1.3,0.7
			c-13.2,6.6-27.2,7.4-41.5,4.8c-2.2-0.4-4.4-1.3-8.2-2.4C835.6,679.8,838.1,679,840.5,678.2z M880.7,668.9
			c-0.5-0.1-0.9-0.1-1.4-0.2c-0.6-0.1-1.2-0.1-1.8-0.1c-12.3,0.3-22.8-5.2-33.4-10c-2.6-1.2-4.1-5.1-6-7.8c2.8-0.7,5.5-1.9,8.3-2
			c12-0.6,22.2,3.5,31.2,11.5c3.4,3,7.9,4.8,11.7,7.4c0.1,0.1,0.2,0.2,0.3,0.3c0.6,0.8,0.8,2.2,1.2,3.2c0,0,0,0.1,0,0.1
			C887.3,670.7,884,669.5,880.7,668.9z M886.4,534.3c0.3-0.8,0.6-1.6,0.9-2.4c5.2,1.6,10.4,3.3,14.8,4.7c-0.1-0.3-0.9-2-1.7-3.6
			c0.4-0.6,0.8-1.2,1.1-1.8c3.9,1.5,7.7,3,12.5,4.8C904.7,542.9,891,541.6,886.4,534.3z M135.3,432.3c-0.3-1-0.7-2-1-3
			c15.4-4.6,30.8-9.3,46.2-13.9c0.3,0.9,0.5,1.7,0.8,2.6C166,422.7,150.7,427.5,135.3,432.3z M207.9,446c6.6-3.5,12.4-1.4,16.1,6.1
			C218.1,449.9,213.3,448,207.9,446z M207.8,439c-0.3-1.2-0.6-2.4-0.9-3.6c5.6-10.3,17.7-8.6,26.6-14.1c1.2,4.8,2.1,8.8,3.6,14.9
			C226.9,437.1,217.3,438,207.8,439z M200.1,412.1c-1.6,0.5-3.3,0.8-5.5-0.3c27.3-11,54.7-22,81.9-33c0.4-6.7,0.7-13.2,1.2-19.6
			c0.1-0.9,1.3-2.4,1.5-2.4c1.6,0.5,3.4,1.1,4.5,2.2c3.7,3.6,7,7.7,10.7,11.3c1.3,1.3,3.3,1.7,5,2.5c0.6-0.4,1.2-0.9,1.8-1.3
			c-5.8-17.4-11.6-34.7-17.2-51.6c19.3,16,38,34.7,66.8,38.9c-19.1-29.9-43.1-50.4-75.1-61.8c36.6,11.7,71.7,10.5,106.4-8.7
			c-32.8-12.3-65-14.9-98.3-5c32.1-9.9,49.1-36.3,69.6-61.3c-28.2,7.6-50.7,22-70.3,42.5c2.6-15.9,9.7-27.4,23.9-34.1
			c18.9-8.9,37.7-18.1,56.4-27.5c2.5-1.3,6.1-4.7,5.7-6.5c-1-5.5-5.4-3.2-8.8-2c-44.5,15.2-85.7,36.5-118.1,71.1
			c-19.8,21.2-36.5,45.3-54.7,68c-6.1,7.5-12.7,14.6-20.4,20.9c1-1.4,1.9-3,3-4.3c22.5-24.7,41.3-52.1,58.2-80.9
			c6.2-10.5,15.2-19.3,23.1-28.8c6.6-8,13.4-16,20.2-23.8c1.3-1.6,3-2.9,4.7-4c30.6-21,64-34.5,100.9-39.3
			c16.2-2.1,31.9,1.1,47.4,5.2c32.4,8.5,64.8,17,97.1,26c34.1,9.5,67,4.6,99.6-6.3c25.6-8.5,50.9-18.2,78.7-15.4
			c7.5,0.8,15,1.5,22.4,3.4h-34.2c0,0.5-0.1,1-0.1,1.6c6.1,0.8,12.2,1.5,18.4,2.3c0,0.7,0,1.3-0.1,2h-34.2c15.1,0.2,29.9,2.1,44,8
			c0,1.1,0,2.3,0,3.4c-5.3,0.1-10.7,0.8-15.9,0.2c-22.9-2.6-44.8,1.3-66.6,8.1c-13.7,4.2-27.9,7.1-42,9.9
			c-5.5,1.1-11.4,0.2-17.6,1.4c2.7,0.7,5.5,2.2,8,1.9c16-2.1,32-4.7,48-7.1c9-1.3,18.1-2.7,27.2-3.7c1.6-0.2,3.5,1.8,5.2,2.8
			c-0.4,0.8-0.9,1.6-1.3,2.4c-3.1-0.8-6.2-1.5-11.2-2.7c2.7,3.3,4.1,5.1,6,7.4h-20.3c-0.1,0.8-0.2,1.7-0.3,2.5
			c6.3,2,12.5,4,19.4,6.1c-11.2,5.4-20.5,12.4-25.4,23.6c0.6,0.7,1.1,1.5,1.7,2.2c7.9-4.9,15.7-9.9,24.4-15.3
			c-8.1,13-13.5,26.2-13.4,42.8c11.5-13.5,21.3-25.9,23.2-43c0.5,17.9,4.2,34.2,19.5,47.2c1-15.3,1.5-29.4-6.1-43.8
			c5,3.9,8.9,7,13.2,10.5c-3.7,2.9-7.6,6.2,0.3,9.2c1.4,0.5,2,4.6,2,7.1c0.1,13.1,0.4,26.2-0.5,39.2c-0.2,3.7-4,7.2-6.3,11
			c2,0.5,4.7,1.1,5.8,1.4v30.2c1.7-0.3,4.1-0.8,7.2-1.4c-2.2,7.2,2.7,10.9,7.4,15.1c5.3,4.9,9.4,11.1,14.9,15.8
			c6.9,5.9,14.7,10.8,21.6,17.2c-5.6-3.2-11.6-6-16.9-9.8c-13.1-9.6-25.9-19.6-38.8-29.4c-0.6-0.5-1.2-1.4-1.8-1.4
			c-18.3-0.6-35.2-12.6-54.4-5.9c-7.3,2.6-15,3.9-22.6,5.8c-0.2-0.9-0.5-1.8-0.7-2.7c12.1-2.9,24.1-5.7,36.2-8.6
			c0.1-0.7,0.2-1.5,0.2-2.2c-2.2-0.3-4.7-1.4-6.6-0.7c-19.2,6.1-38.3,12.3-57.3,18.8c-7.8,2.7-15.2,6.4-22.8,9.6
			c0.4,0.9,0.7,1.8,1.1,2.7c10.2-3.9,20.5-7.7,30.7-11.6c0.4,0.5,0.8,1,1.2,1.5c-3.1,2.8-5.7,6.5-9.3,8.2
			c-31.2,14.2-62.1,11.7-92.5-1.4c0-0.9,0-1.8,0-2.7h39.1c0-0.8,0.1-1.5,0.1-2.3c-11.8-1.6-23.5-3.3-35.3-4.8
			c-21.2-2.7-41.8-7.2-60.5-18.3c-1.3-0.8-3.1-1.8-4.4-1.5c-2,0.5-3.7,2.1-5.5,3.3c1,1.5,1.7,3.6,3.1,4.3c4.6,2.3,9.5,4.1,15.7,6.7
			c-57.4-9.4-109,7.4-160.4,25.5C254.9,394.1,227.5,403,200.1,412.1z M265.8,408.9c-5.7,10.6-11.2,20.8-16.7,31.1
			C246.3,431.3,256.6,411.2,265.8,408.9z M254.5,447.8c-1.4-2-2.1-5.9-1.2-7.9c5-10.6,10.6-20.8,16-31.1c0.7-1.3,1.8-2.9,3-3.4
			c23-9,44-23.3,69.3-26.3c1-0.1,2,0,3.2,0c-0.1,25.7-5,50.6,1.8,77.5c2.3-3.6,3.2-5.1,4.6-7.3c-1.2,11.8-1.8,11.9-11.9,12.8
			c-20.7,1.9-41.2,2.4-61.8-1.1C268.1,459.3,259.9,455.8,254.5,447.8z M857.5,822.7c-0.5-0.1-0.9-0.2-1.4-0.3
			c2.4-7.8,4.9-15.5,7.3-23.3c1.3,0.5,2.7,0.9,4,1.4C864.1,807.9,860.8,815.3,857.5,822.7z M883.9,742.4c-1.1,3.2-2,6.5-3.4,9.6
			c-4.4,10.1-9,20.2-13.6,30.3c-0.7,1.6-2.2,2.9-2.7,4.5c-3.7,12.5-7.1,25-10.8,37.5c-0.2,0.5-1.3,0.8-2.9,1.7
			c-2.5-4.3-4.9-8.6-7.3-12.8c-0.4,0.1-0.8,0.3-1.1,0.4c0.5,2,0.9,4,1.4,6.1c-0.7,0.4-1.3,0.8-2,1.1c-6.4-9.1-12.8-18.1-19.3-27.4
			c0.6,3.4,1.2,6.9,1.8,10.3c-8.1-8.7-23.4-9.3-26.1-24.7c-1.9-11.1-6.5-21.7-9.4-31.2c-2.7,5.1-2.7,15,1.3,31.3
			c-6.4-4-7-5.8-14.8-43c1,11.6,2.1,23.1,3.1,34.7c-11.7-19-8.5-39.3-5.1-59.7c-6.7,15.5-9,31.6-7.3,49.8
			c-8.5-5.6-16.1-10.5-23.6-15.5c-7.7-5.2-9.6-12.8-7.7-21.4c0.8-3.7,1.8-7.3,2.8-10.9c1-3.6,2-7.3,3-10.9c4-4.3,8-8.6,12-12.9
			c-4,4.3-8,8.6-12,12.9c-3.7,9.5-7.4,19-11.2,28.8c-10.6-4.5-1.2-12.4-2.2-19.8c-1.3,2.6-2.5,4.3-3.1,6.1c-0.8,2.2-1.1,4.5-1.8,7.6
			c-6.6-5-13.2-9.8-19.7-14.7c-6.5-4.9-13-9.7-19.4-14.5c-0.8-0.2-1.6-0.5-2.6-0.8c-0.5-0.1-1-0.3-1.5-0.5c-0.6-0.2-1.2-0.4-1.8-0.6
			c9.4,9.4,17.6,18.4,26.6,26.6c5.4,5,10.6,9.7,12.4,17.2c0.4,1.8,1.1,3.6,0.9,5.3c-1,8.1-3,16.2-3.3,24.3
			c-0.5,11-1.9,13.4-12.5,15.3c0.2,0.8,0.3,1.5,0.5,2.3c18.8-3.9,37.5-7.9,56.3-11.7c4-0.8,8.1-1.1,12.4-0.4
			c-23.1,9-47.1,12.9-71.5,13.7c-45.1,1.4-89.5-4.3-133-16.1c-10.8-2.9-21.4-7.4-31.1-12.9c-39.8-22.3-79.6-44.5-118.6-68.1
			c-37.7-22.8-73.3-48.7-106.4-78c-8.4-7.4-17.4-14.2-26.3-21.5c3.5-0.9,6.3-1.6,9-2.3c-1.6-3-3.3-5.9-4.8-9c-1-2.1-1.7-4.3-2.5-6.5
			c0.8-0.3,1.7-0.6,2.5-0.9c2,2.8,4,5.6,6,8.4c0.8-0.3,1.7-0.6,2.5-0.9c-1.1-4.4-2.1-8.9-3.2-13c7,2,14.4,4,21.9,6.1
			c0.5-1.1,0.9-2.1,1.4-3.2c-4.2-2.6-8.4-5.1-13.2-8c8.7-2.6,17-5.1,25.4-7.5c-0.2-1.2-0.4-2.5-0.6-3.7c-10.7,0.5-21.4,1.1-29.8,1.5
			c9.7-4,13.9-15.3,18.8-26.3c-0.5-0.6-1.1-1.2-1.6-1.8c-4.4,2.8-8.8,5.7-13.3,8.4c-5.9,3.7-8,2.8-9.1-3.9c-0.8-4.6-1.4-9.2-2.5-16
			c4.2,2.4,6.8,3.9,8.6,5c0.7-5.9,1.9-12.4,2-18.8c0-2.1-2.7-4.2-4.2-6.3c1.1-0.4,3.1-1.2,6-2.4c-3.5-2.3-6.3-4-9-5.7
			c0.2-0.4,0.3-0.8,0.5-1.2c7.8,3.1,15.5,6.7,23.4,9.2c27.2,8.7,54,18.8,81.7,25.1c37.4,8.5,72.6,21.5,105.9,40.5
			c9.6,5.5,15.7,10.1,11.3,21.3c-4.3-6.5-9-13.5-13.7-20.4c-1,0.6-2,1.1-3,1.7c3.8,8,7.5,15.9,11.2,23.6c-11.7-8.1-25-11.9-39.7-8.5
			c-0.2,0.8-0.4,1.6-0.6,2.5c12,3.5,24.1,7,36.1,10.4c-17.9-0.8-34,4.7-50.2,14.9c20.9,2.7,38.8-1.5,56-11.7
			c-17,12.5-30.1,27.1-33,49.8c18-11.7,31.4-25.8,37-46.9c-5,18.6-4.8,36.6,2.4,55.6c6.9-19,7.2-37,1-55.2c6.8,12,13.6,24,20.4,36
			c0.8-0.4,1.6-0.8,2.4-1.3c-1.6-13.7-6.9-25.7-17.1-34.9c20.5-1.1,34.4,12.8,50.3,22c16.5,9.5,30.6,21.3,42.1,37
			c6,8.3,16.3,13.7,25.3,19.4c13,8.2,26.6,15.5,40,23.2c1.7,0.5,3.4,1.1,5.1,1.6c0,0,0,0,0,0c0,0,0,0,0,0
			c-8.2-13.9-26.3-31.5-40.8-38.3c-0.8-0.4-1.5-0.7-2.3-1c-1-0.4-2-0.8-3-1c-0.6-0.2-1.1-0.3-1.6-0.4c-2.1-0.5-4.1-0.6-5.9-0.2
			c2.3,1.7,4.1,3.1,6,4.6c-0.3,0.8-0.7,1.5-1,2.3c-2.5-1.2-5.6-1.9-7.5-3.8c-12.3-12.1-24.5-24.4-36.6-36.7c-5-5-9.7-10.3-14.9-15
			c-2.1-1.9-5.1-2.8-8.5-2.7c1.3,0.9,2.7,1.8,4,2.7l-0.7,1.9c-2.2-1-6.2-2-6.3-3.1c-0.3-9.6-9.1-12.1-14.2-17.5
			c-10.4-11.1-18.8-23.4-24.7-38h-9c9.5-5.2,10.9-4.3,15.5,9.2c0.9-2.9,1.5-4.8,2.4-7.4c8.2,4.3,16.4,8.5,24.5,12.6
			c0.2-0.4,0.4-0.8,0.6-1.1c-8-5.4-15.9-10.7-23.9-16.1c0.3-0.6,0.5-1.1,0.8-1.7c4.6,1.5,9.2,3,13.8,4.5c0.2-0.3,0.3-0.7,0.5-1
			c-1.3-1.1-2.6-2.2-4.4-3.8c3.2-2.2,6.2-4.1,10.2-6.9c-4.8-1.1-8.4-1.9-13.6-3c13.2-5.2,23.2-0.3,33.2,4.3c3.6,1.7,7.2,6,10.4,5.6
			c14.3-1.7,18.9,12.7,29.7,16.5c19.5,6.7,28.7,25.7,44.1,37.4c6.8,5.1,14.2,9.4,22.2,12.8c-9.8-10.3-19.7-20.5-29.5-30.8
			c0.6-0.7,1.3-1.4,1.9-2.1c7.8,6.8,15.7,13.7,23.5,20.5c0.4-0.4,0.8-0.9,1.2-1.3c-4.4-4.2-8.7-8.3-13.1-12.5c0.3-0.5,0.6-1,1-1.6
			c17.9,10.9,36.4,20.8,53.5,32.8c17.2,12.1,33.1,26.1,50.3,39.8c-4.9,3.6-8.6,7-12.9,9.2c-2,1-5.3,0.3-7.7-0.6
			c-17.1-6.2-34.1-12.5-51.2-18.9c-0.2,0.6-0.5,1.2-0.7,1.8c17.3,7.6,34.5,15.2,52.3,23c-5.3,4.8-10.2,9.3-15.1,13.7
			c0.6,0.6,1.1,1.3,1.7,1.9c3.5-2.8,6.8-5.9,10.5-8.4c3.5-2.3,6.1-8.3,11.6-3.6c-4.2,4.7-8.3,9.3-12.4,14c0,0,0,0,0,0
			c0.7-0.4,1.4-0.8,2.1-1.2c0.7-0.4,1.3-0.8,1.9-1.3c13.4-10.1,13.4-10.2,29-3.6c-0.5,1.2-1.1,2.4-1.5,3.3c3,0,7.7-1.1,8.6,0.2
			c2.1,3.3-0.4,4.9-4.1,4.5c-2.3-0.3-4.6,0-7.2,1.8c5.2,0.7,10.6,2.9,15.5,2c33.8-6.1,59,11,83.3,30.4c3.1,2.4,5.4,5.7,7.1,7.5
			C886,736.2,885,739.3,883.9,742.4z M874.7,708.6c15.1-16.3,26.6-34.6,31.8-56.5C905.3,676.2,884.9,712.6,874.7,708.6z
			 M924.3,618.6c-2.3,5.8-4.7,11.6-7,17.3c-1-0.4-2-0.9-3-1.3C910.7,626,917.3,622.3,924.3,618.6z M846.7,742.6
			c-7.6,10.4-12.5,21.7-13.5,36.5C838.2,765.6,842.5,754.1,846.7,742.6z M755,748.9c0.8,0.2,1.5,0.4,2.3,0.6
			c1.9-7.7,3.9-15.3,5.8-23c-0.7-0.3-1.4-0.6-2.2-0.9C758.9,733.4,756.9,741.2,755,748.9z M495.9,522.5c0-0.1,0-0.2,0-0.3
			c0,0,0,0,0,0c0,0-0.1,0.1-0.2,0.2c0,0,0,0,0,0c-1.9-2.6-3.7-5.3-6.4-9c-3.4,6.7-5.6,11.3-7.9,15.7c0,0,0,0,0,0c0,0,0,0,0,0
			c1.1-3.8,2.2-7.6,3.5-11.9c0.1-0.2,0.1-0.5,0.2-0.7c0.4-1.3,0.8-2.7,1.2-4.1c-3.3-0.7-6.8-1.4-10.3-2.2c-3.2-1.2-8.7-3.9-9.2-3.2
			c-2.6,3.6-4.4,8.1-5.2,12.5c-0.2,1.2,3.9,3.3,5.6,4.6c2.8-4.1,4.7-6.9,6.7-9.8c-1,3.4-2,6.8-3.1,10.8c3.9,1.5,7.2,2.8,10.6,4.1
			c0,0.1-0.1,0.2-0.1,0.3c0.1-0.1,0.1-0.2,0.2-0.3c2.8,1.1,5.5,2.2,7.5,2.9c1.5-2.2,2.9-4,4.1-5.8c1-1.4,1.9-2.6,2.8-3.9
			C495.8,522.5,495.9,522.5,495.9,522.5c-0.5,3.6-4.8,7.8-3,11.3c0.1,0.2,0.3,0.5,0.5,0.7c0.8,1,2.3,2,4.7,2.8
			c2.1-4.3,4.1-8.3,6.8-13.9C501.2,522.9,498.5,522.7,495.9,522.5z M746.3,702.3c7.3-6.3,13.5-11.7,19.8-17.1
			c-0.6-0.5-1.3-1.1-1.9-1.6C758.5,689.5,752.9,695.4,746.3,702.3z M449.7,316.5c-7.6,3.2-15.1,6.3-20.8,8.7
			c5.7-8.1,12.1-17.4,18.6-26.7c-1.2-0.9-2.4-1.8-3.7-2.7c-7.3,9.6-14.7,19.2-22.1,28.9c4.2-12.7,4.6-25.4-3.5-38.8
			c-3.6,12.4-4.6,23.3-0.8,34.4c0.1,0.3,0.1,0.5,0.2,0.8c0.1,0.4,0.1,0.9,0,1.4c-0.1,1.4-0.5,3-0.7,4.5c0,0-0.1-0.1-0.1-0.1
			c-2.6-11.3-8.9-19.6-18.9-25.9c-1.5-0.9-3-1.8-4.6-2.6c5,13,12.9,22,23.5,28.6c0,0,0,0.1,0,0.1c-2.2-0.5-4.5-0.9-6.7-1.7
			c-6-2.2-12-4.6-18-6.9c-0.4,1-0.9,2.1-1.3,3.1c5.8,2.7,11.3,6.7,17.3,7.6c7.6,1.2,9.1,4.2,6.8,11.8c7.3-15.5,16.9-0.7,27.2-3.5
			c-6.3-2.9-11-5-14.7-6.7c7.4-3.6,15.4-7.4,23.5-11.3C450.6,318.5,450.2,317.5,449.7,316.5z M409.7,227.3
			c-12.9,19.7-18.2,33.8-16,42.5c14.3-13,22.4-29.5,25.5-48.6c0.9,10.5,0,20.9,2.3,30.5c2.2,9.3,7.7,17.8,11.7,26.6
			c0.8-0.3,1.6-0.7,2.3-1c2-18.8,1.4-37.2-9.3-54.2c9.5,15.4,22.7,25.2,39.6,30.4c-8.7-15.2-19.7-28-36.5-34
			c12.6,2.4,25.2,4.8,37.8,7.1c0.3-1.1,0.7-2.1,1-3.2c-7.8-3.2-15.5-6.4-23.3-9.6c26.9,4.4,53.5,12.3,81.2,7.3
			c-4.5-1.2-9.2-1.3-13.6-2.2c-33-7-66-13.9-98.9-21.6c-6.3-1.5-11.8-6.5-18.5-10.4c-0.4,2-2.1,5.5-1.6,8.6
			c1.7,10.2,11.5,11.3,20.3,15.3c-9.2-1-16.7-1.9-24.3-2.7c-0.2,1-0.4,2-0.6,3.1c7.7,2.4,15.4,4.7,22.9,7
			c-12.7,3.5-23.9,10.2-30.1,22.9c0.4,0.7,0.9,1.3,1.3,2C391.9,237.8,400.6,232.7,409.7,227.3z M581.6,574.5
			c17.7,18.2,41.3,28.3,60.9,44c0.5-0.7,1-1.4,1.5-2.1c-20.2-14.8-40.4-29.5-60.6-44.3C582.8,572.9,582.2,573.7,581.6,574.5z
			 M558.8,589c5.8,4.7,11.7,9.4,17.5,14.1c0.5-0.8,1.1-1.5,1.6-2.3c-5.9-4.6-11.7-9.2-17.6-13.8C559.8,587.7,559.3,588.3,558.8,589z
			 M504.6,542.7c0.6-6.3,7.4-10.1,1.7-17.8C504.5,531.5,497.2,535.2,504.6,542.7z M646.6,337.6c8.8,0.6,16.3,1.1,24.3,1.7
			c-1.9-1.7-3.8-3.4-5.5-4.9c4.2-1.9,8.5-3.8,12.8-5.8c-0.3-0.7-0.6-1.5-0.9-2.2c-2.5,0.7-5.1,1.3-8.2,2.2c2.7-4.6,5-8.5,7.3-12.3
			c-0.5-0.5-1.1-0.9-1.6-1.4c-3.7,4-7.4,7.9-11.6,12.4c-0.4-6.8-0.7-12.9-1.1-19.1c-1,0-2-0.1-3-0.1c-0.9,5.6-1.8,11.3-2.6,16.8
			c-2.9-3.6-5.8-7.3-8.7-11c-0.9,0.6-1.8,1.2-2.6,1.8c2.7,4.3,5.4,8.7,8.5,13.6c-3.7-1.4-6.8-2.6-10-3.8c-0.3,0.6-0.6,1.1-0.9,1.7
			c3.5,2.2,6.9,4.3,10.3,6.5C650.8,335.1,649,336.2,646.6,337.6z M492.5,255.1c9.2,28.5,24,50.8,48.5,66.1
			c-9.7-3.7-18.7-8.2-28.1-11.8c-9.2-3.6-18.7-6.4-28-9.5c13.5,18.7,32.5,26.2,51.9,28.5c-10.3,5.6-21.5,11.8-32.8,18
			c0.5,1.2,1,2.3,1.5,3.5c11.7-3.7,23.4-7.4,34.5-10.9c-1.5,3.4-3.4,7.7-5.9,13.1c9.5-3.3,13.3-9.7,14.9-18.1
			c0.6,0.3,1.2,0.6,1.8,0.9v14.8c1.3-4,2.7-8.4,4.1-12.9c0.5-1.4,0.9-2.9,1.4-4.3c0,0,0,0,0,0c-2.9,8.6,2.6,15.9,14.9,17.8
			c-1.4-1.7-2.7-3.3-4.1-4.8c-3.8-4.5-7.3-8.7-10.9-12.9c0-0.1,0-0.1,0.1-0.2c6.9,4.4,12.6,7.7,17.7,10.1c1.2,0.5,2.3,1,3.4,1.5
			c0.2,0.1,0.3,0.1,0.5,0.2c0.2,0.1,0.4,0.2,0.6,0.2c1,0.4,1.9,0.7,2.8,1c1.1,0.3,2.1,0.6,3.1,0.9c0.4,0.1,0.8,0.2,1.2,0.3
			c1.3,0.3,2.6,0.4,3.8,0.5c0.8,0.1,1.6,0.1,2.4,0.1c2.1,0,4.2-0.3,6.3-0.7c-11.8-10.2-25-17-40.8-18.7c24.6,0.2,44.6-8.3,59.7-27.4
			c-21.1,2.5-39.9,10.8-58,22.1c25.4-16.7,42.2-39.2,49.1-68.8c-11.5,9.5-23.5,18.7-32.5,30.2c-9,11.5-15,25.4-23.5,40.3
			c2.5-17.4,10.3-31.3,9-47.5c-1.3-16.1-5.5-30.7-12.9-45.9c-10.9,28.2-13,55.2-3.8,82.7C534.1,288.4,515.6,270.8,492.5,255.1z
			 M596.5,755.3c-4.5-0.3-3.1,12.1-11.9,7c0.5-1.6,1.1-3.3,1.6-4.9c-0.4-0.3-0.8-0.6-1.3-0.9c-4.5,3.2-8.9,6.4-13.4,9.6
			c0.3,0.6,0.7,1.3,1,1.9c11-0.5,21.7-1.9,31.2-7C601.3,759,599.3,757.5,596.5,755.3z M403.2,526c22.1,7.4,42,18.8,59.8,33.9
			c2.1,1.8,5.7,1.7,9.6,2.8c-3.1-10.8-56.4-38.8-70.8-38.6C402.6,525.3,402.8,525.9,403.2,526z M609.1,759.1
			c-2.6,4.4-5.3,8.7-8.6,14.1c8.5-0.7,11.2-4.6,10.9-12.8C610.6,760.1,609.9,759.6,609.1,759.1z M607.4,645.9
			c-1.2,6.5-2,11.1-2.8,15.6C608.1,657.4,615.3,654.2,607.4,645.9z M421,589.9c6.1-9.8,9.7-21.2,14.5-31.9c-0.9-0.5-1.8-1.1-2.8-1.6
			c-8.8,9.5-18.8,18.2-26.1,28.8c-7.2,10.5-11.6,22.8-17.2,34.4c8.8-27.8,7-54-9.1-80c-7.7,24.6-8.7,47.7,0.3,70.7
			c-9.8-21.2-27.6-34.6-48.1-47.9c9.6,26.5,24.6,45.7,48.6,57.9c-17.4-7.9-34.7-14.8-55.6-17.1c14.3,15,30.8,20.8,48.9,22.2
			c-8,5.4-15.5,10.5-23,15.6c0.6,1.1,1.2,2.3,1.8,3.4c8.7-3.3,17.4-6.7,26-10c-1.3,3.3-2.8,6.7-4.2,10.2c0.9,0.5,1.7,1.1,2.6,1.6
			c2.6-4,5.1-8.1,7.7-12.1c0.9-1.4,1.9-3.5,3.1-3.6c1.2-0.1,2.7,1.6,3.9,2.7c3.7,3.5,7.2,7.1,10.8,10.7c0.7-0.7,1.4-1.4,2.1-2.1
			c-3-3.5-6-7.1-8.3-9.8c10,2.5,20.6,5.2,31.2,7.9c0.3-0.9,0.6-1.8,0.9-2.7c-5.3-3-10.5-6.6-16.1-9c-5.5-2.2-11.5-3.2-17.4-4.7
			c28.2-6.2,43.8-15.2,47.1-29.2c-15.8,7.5-30.2,14.4-42.3,20.1C406.4,607.5,415,599.5,421,589.9z"/>
	</g>
</g>
</svg>
